<svg preserveAspectRatio="none" overflow="visible" style="display: block;" width="303" height="303" viewBox="0 0 303 303" fill="none" xmlns="http://www.w3.org/2000/svg">
<g id="uiw:barcode">
<path id="Vector" d="M127.836 37.875H141.304V230.734H127.836V37.875ZM94.2027 37.875H114.383V230.734H94.2027V37.875ZM80.7495 37.875H87.4761V230.734H80.7495V37.875ZM33.633 37.875H40.3747V230.734H33.633V37.875ZM47.1013 37.875H67.266V230.734H47.1165L47.1013 37.875ZM235.719 37.875H255.899V230.734H235.734L235.719 37.875ZM195.344 37.875H215.524V230.734H195.344V37.875ZM222.25 37.875H228.992V230.734H222.25V37.875ZM195.344 244.491H269.352V265.125H195.344V244.491ZM0 37.875H20.1798V265.125H0V37.875ZM161.696 244.491H181.891V265.125H161.696V244.491ZM262.625 37.875H269.352V230.734H262.625V37.875ZM282.82 37.875H303V265.125H282.82V37.875ZM175.164 37.875H188.617V230.734H175.164V37.875ZM33.633 244.491H53.8128V265.125H33.6481L33.633 244.491ZM67.266 244.491H148.016V265.125H67.266V244.491ZM154.984 37.875H161.711V230.734H154.984V37.875Z" fill="black"/>
</g>
</svg>
