<svg preserveAspectRatio="none" overflow="visible" style="display: block;" width="40" height="40" viewBox="0 0 40 40" fill="none" xmlns="http://www.w3.org/2000/svg">
<g id="emojione:taco">
<path id="Vector" d="M10.25 38.6875C6.4375 38.6875 2.75 38.6875 1.3125 19.4375C-0.625 -6.8125 33.875 2.75 33.875 17.875C33.875 26.1875 10.25 38.6875 10.25 38.6875Z" fill="#D3976E"/>
<path id="Vector_2" opacity="0.5" d="M2.25 19.4375C1.4375 8.1875 7.25 3.5625 14.25 3.0625V3C6.875 3.125 0.4375 7.6875 1.3125 19.4375C2.625 37.25 5.9375 38.6875 9.375 38.6875C6.1875 38.125 3.4375 35.6875 2.25 19.4375Z" fill="white"/>
<path id="Vector_3" d="M12.0625 15.9375L2.6875 20.0625L1.375 23.125L3.0625 24.125L1.875 26.8125L2.8125 27.375L1.5 30.1875L3.5625 31.4375L2.375 34.125L4.8125 35.625L4.375 36.625L7.1875 38.3125L7.75 37.0625L9.125 38.625L11.375 38.0625L18.6875 24L12.0625 15.9375Z" fill="#594640"/>
<path id="Vector_4" d="M14.375 24.375L16.25 21.875L2.3125 20.0625L1.3125 22.3125L3.375 23.5625L4 22.1875L5.0625 22.8125L4.25 24.5625L2.8125 23.6875L1.8125 25.9375L3.875 27.125L4.6875 25.25L6.0625 26.0625L6 26.25L7.25 27L6.875 27.375L4.9375 26.25L4.0625 28.125L2.375 27.125L1.375 29.375L3.4375 30.5625L4.25 28.75L5.9375 29.75L6.4375 28.5625L6.875 29.0625L6.25 30.5L5.25 29.9375L4.4375 31.6875L3.25 30.9375L2.25 33.1875L4.3125 34.4375L5.125 32.6875L6.3125 33.4375L6.5 33L7.125 33.75L6.75 34.375L5.3125 33.5L4.3125 35.75L6.375 36.9375L7.25 35L8.75 37.125L10.125 35.5625L11.25 36.8125L12.875 35L11.25 33.25L9.875 34.8125L9.375 34.3125L9.6875 33.6875L11.125 32L11.875 32.875L13.5 31.0625L11.875 29.1875L10.375 30.9375L9.625 30.0625L8.375 31.4375L9.1875 29.625L8.4375 29.1875L8.875 28.6875L9.25 28.875L10.3125 30.0625L11.9375 28.25L10.3125 26.4375L10.1875 26.5625L9.625 26.25L10.375 25.4375L11.4375 26.625L11.25 26.8125L12.6875 28.4375L12.375 28.8125L14 30.625L15.625 28.8125L14.375 24.375Z" fill="#89664C"/>
<path id="Vector_5" d="M6 23.8125L4.625 22.9375L3.875 24.5L5.3125 25.375L6 23.8125ZM8.75 23L9.1875 22.0625L8.3125 21.5L7.8125 22.5L8.75 23ZM6.625 26.375L6.1875 27.375L7.0625 27.9375L7.5 26.9375L6.625 26.375ZM6.9375 28.5625L6.5 29.5L7.375 30.0625L7.8125 29.0625L6.9375 28.5625ZM8.25 25.9375L9.125 26.4375L9.5625 25.5L8.6875 24.9375L8.25 25.9375ZM2.8125 27.9375L1.9375 27.4375L1.5 28.375L2.375 28.9375L2.8125 27.9375ZM2.9375 31.6875L2.5 32.6875L3.375 33.1875L3.8125 32.25L2.9375 31.6875ZM4.625 35.25L5.5 35.75L5.9375 34.75L5.0625 34.25L4.625 35.25ZM4.5625 28.9375L5 27.9375L4.125 27.4375L3.6875 28.375L4.5625 28.9375ZM4.75 29.625L4 31.1875L5.4375 32.0625L6.125 30.5L4.75 29.625ZM6.75 33.125L7.625 33.625L8.0625 32.6875L7.1875 32.125L6.75 33.125ZM7.5625 35.4375L8.4375 35.9375L8.875 35L8 34.4375L7.5625 35.4375ZM11.375 22L10.6875 21.1875L10 22L10.6875 22.75L11.375 22ZM12.0625 24.4375L11 23.1875L9.875 24.4375L11 25.6875L12.0625 24.4375ZM12.375 25.5625L11.6875 26.375L12.375 27.125L13.0625 26.375L12.375 25.5625ZM12.75 28.375L13.4375 29.1875L14.125 28.375L13.4375 27.5625L12.75 28.375ZM10.3125 29.4375L11 30.25L11.6875 29.4375L11 28.625L10.3125 29.4375ZM10.5 33.375L11.1875 34.125L11.875 33.375L11.1875 32.5625L10.5 33.375ZM9.3125 35.75L10 36.5625L10.6875 35.75L10 34.9375L9.3125 35.75Z" fill="#D3976E"/>
<path id="Vector_6" d="M28.5625 5.5L22.625 1.5625L21.8125 1.25L22.0625 3.6875L15 2.25L14.25 2.4375L6.875 7.5L3.9375 15L1.875 15.625V16.875L6.25 15.625L4.1875 17.625L4.8125 20.375L16.0625 21.125L28.5625 5.5Z" fill="#FFEC40"/>
<path id="Vector_7" d="M14.0625 2.875C12.6875 2.625 11.5625 4.125 10.25 4.5625C8.875 5.0625 11.375 6.9375 12.125 6.9375C14.25 6.9375 18.25 3.6875 14.0625 2.875ZM7.1875 10.6875C7.6875 9.25 7.5 7.5 5.5625 8.75C3.9375 9.8125 5.6875 11.4375 3.6875 12.375C1.75 13.25 3.0625 15.75 4.75 15C6.25 14.4375 6.75 12.125 7.1875 10.6875ZM7.1875 10.6875C7.1875 10.75 7.1875 10.75 7.1875 10.6875ZM15.4375 19.5625C15.75 19.875 15.5625 19.75 15.4375 19.5625C13.125 17.3125 9.75 22.6875 10.5 23.6875C13.4375 27.5625 16.8125 21 15.4375 19.5625Z" fill="#83BF4F"/>
<g id="Group">
<path id="Vector_8" d="M8.3125 15.9375L6.6875 19.75L10.8125 21.25L13.125 17.0625L8.3125 15.9375Z" fill="#ED4C5C"/>
<path id="Vector_9" d="M6.0625 15.1875L8.1875 16.875L11.75 14.375L9.4375 12.5L6.0625 15.1875ZM13.0625 12.1875L15.9375 14.375L19.6875 12.125L17.75 9.5L13.0625 12.1875ZM9.9375 7.1875L10.1875 10.1875L14.25 8.3125L14.0625 6.1875L12.1875 5.125L9.9375 7.1875ZM18.375 2L17.3125 5.1875L21.875 5.625L21.625 2.5625L18.375 2ZM23.125 1.875L23.375 5L27.5625 4.5625L28.0625 2.625L23.125 1.875Z" fill="#ED4C5C"/>
</g>
<g id="Group_2">
<path id="Vector_10" d="M22 7.3125C23.6875 7.75 21.3125 7.1875 22 7.3125Z" fill="#83BF4F"/>
<path id="Vector_11" d="M22.5 7.5C21.9375 7.0625 20.8125 8.875 20.1875 9.25C19.4375 9.75 13.5 11.1875 18.625 12.5C20.25 12.9375 23.75 8.5 22.5 7.5ZM25.1875 6.0625C25.6875 6.375 24.6875 5.75 25.1875 6.0625ZM27.0625 3.5625C26 5 26.1875 1.9375 24.625 3.3125C23.6875 4.125 24.1875 5.5 25.1875 6.0625C26.0625 6.625 29.125 6.3125 29.3125 4.875C29.4375 3.9375 27.8125 2.5625 27.0625 3.5625ZM4.375 16.25C3.5 16.25 1.6875 18.5625 1.6875 18.5625C0.0625001 20.3125 3.4375 20.3125 3.5 20.625C3 21 2.5 21.375 1.9375 21.6875C1.9375 22.9375 4.5625 21.5625 4.375 21.6875C2.875 24.25 9.0625 21.25 9.4375 21C11.5625 19.6875 8.125 16.25 4.375 16.25ZM11.25 13.6875C11.75 13.6875 10.375 13.625 11.25 13.6875Z" fill="#83BF4F"/>
<path id="Vector_12" d="M12.75 10.1875C10.625 6.25 10.375 10.1875 10 10.625C9.75 10.875 6.875 10.625 8.1875 12.1875C8.75 12.875 10.4375 13.875 11.3125 13.625C13.125 13.125 13.1875 11 12.75 10.1875Z" fill="#83BF4F"/>
</g>
<path id="Vector_13" d="M12.9375 15L6.125 15.875L4.375 17.1875L5.125 17.8125L11.875 15.625L13.5625 15.5L12.9375 15ZM18.125 7.9375L15.1875 7.6875L8.75 9.8125L9.75 10.625L15.0625 8.9375L18.1875 8.625L18.125 7.9375ZM14.4375 13.25L13.75 13.3125L15.0625 16.5L17 16.875L17.5 15.75L16.375 15.3125L14.4375 13.25ZM13.4375 17.3125L14.8125 21.1875L13.8125 21.875L12.6875 18.4375L13.4375 17.3125ZM24.125 4.5625L22.8125 4.1875L21.8125 1.25L21 1.3125L22 4.75L23.6875 5.4375L24.125 4.5625ZM18.5 3.3125L14.25 2.4375L13.8125 3.125L18.3125 4.3125L18.5 3.3125Z" fill="#FFFFD4"/>
<path id="Vector_14" d="M10.25 38.6875C10.25 38.6875 12.875 38.6875 14.375 28.5625C15.9375 18.3125 22.8125 4.5 33.5 4.5C37.1875 4.5 39.75 6.9375 38.3125 20.25C38.125 22.5625 13.5 38.6875 10.25 38.6875Z" fill="#FBBF67"/>
<path id="Vector_15" d="M33.5625 3.875C20 3.875 15.8125 19.25 14.375 28.5625C12.8125 38.6875 8.6875 38.6875 8.6875 38.6875C8.6875 38.6875 11.3125 39 12.0625 38.375C13.1875 37.4375 14.5 35 15.3125 29.625C16.75 20.25 21.75 4.8125 33.875 4.8125C37.3125 4.8125 38.4375 9.75 38.4375 9.75C38.4375 9.75 37.875 3.875 33.5625 3.875Z" fill="#FDDFB3"/>
<path id="Vector_16" d="M24.5 25.5L25.125 24.875L25.75 25.5L25.125 26.1875L24.5 25.5ZM25.3125 16.75L25.9375 16.0625L26.5625 16.75L25.9375 17.4375L25.3125 16.75ZM35.0625 16.75L35.6875 16.0625L36.3125 16.75L35.6875 17.4375L35.0625 16.75ZM33.875 9.875L34.5 9.1875L35.125 9.875L34.5 10.5L33.875 9.875Z" fill="#D3976E"/>
<path id="Vector_17" d="M30.1875 20.875L29.5625 21.5L30.1875 22.1875L30.8125 21.5L30.1875 20.875ZM31.6875 13L31.0625 13.625L31.6875 14.3125L32.3125 13.625L31.6875 13ZM26.875 10.625L26.25 11.3125L26.875 12L27.5 11.3125L26.875 10.625ZM20.9375 20.5L20.3125 21.1875L20.9375 21.8125L21.5625 21.1875L20.9375 20.5ZM19.5 29L18.875 29.6875L19.5 30.3125L20.125 29.6875L19.5 29Z" fill="#FDDFB3"/>
</g>
</svg>
